<svg id="Layer_1" data-name="Layer 1" xmlns="http://www.w3.org/2000/svg" viewBox="0 0 137.81 168.78"><defs><style>.cls-1{fill:#2e42b9;}.cls-2{fill:#4c6adb;}.cls-3{fill:#fff;}</style></defs><path class="cls-1" d="M366.45,240.15h0v-.05c-.1-.72-.19-1.45-.3-2.18l0,0-.37-2.56-65.6-19.23-65.61,19.23-.37,2.56,0,0-.3,2.18v.05h0c-17.74,134.35,66.31,144.74,66.31,144.74S384.18,374.5,366.45,240.15Z" transform="translate(-231.1 -216.11)"/><path class="cls-2" d="M234.26,235.34l-.37,2.56,0,0c-.11.73-.2,1.46-.3,2.18v.05h0c-17.73,134.35,66.31,144.74,66.31,144.74V216.11Z" transform="translate(-231.1 -216.11)"/><path class="cls-3" d="M351.31,251.77a4.88,4.88,0,0,0-1.33-.49,4,4,0,0,0-2.5.41c-1.82.89-2.74,3.7-2.85,4.61-.16,1.29-1.46,7.94-2.59,24s-7.45,36.29-12.48,25.23-3.07-21-9.39-17.94c-4.71,2.3-1.86,15.23-.1,21.65.37,1.37,2.08,5.38,2.53,6.47a18.2,18.2,0,0,1-2.11,18.22c-5.28,7.25-12.89,10.26-17.24,11.44a13,13,0,0,1-6.77,0c-4.35-1.18-12-4.19-17.24-11.44a18.2,18.2,0,0,1-2.11-18.22c.44-1.09,2.15-5.1,2.53-6.47,1.75-6.42,4.61-19.35-.1-21.65-6.32-3.07-4.37,6.87-9.4,17.94s-11.34-9.19-12.47-25.23-2.43-22.68-2.59-24c-.12-.91-1-3.72-2.86-4.61a4,4,0,0,0-2.49-.41,4.76,4.76,0,0,0-1.33.49c-2.12,1-3,2.39-2.88,5.66.16,3.89,1.78,34.83,7.29,52.33s18.14,38.88,31.59,47.95c10.92,7.37,14.29,8,15.17,8h.55c.88,0,4.24-.61,15.17-8,13.44-9.07,26.08-30.46,31.59-47.95s7.13-48.44,7.29-52.33C354.32,254.16,353.43,252.73,351.31,251.77Z" transform="translate(-231.1 -216.11)"/></svg>